
<!-- This file contains a visual representation of the current starmap.
		There's no lines or names because I was too lazy, but factions are color coded.
		You can change the visibility of the sectors by changing their "opacity" variable to 1 or 0. -->

<svg xmlns="http://www.w3.org/2000/svg" viewBox="0 0 500 500">
	<rect fill="#112" x="0" y="0" width="500" height="500"/>
	<g color="#FFF" fill="white" transform="scale(1,-1) translate(0,-500)">
	<g id="IVsector1" opacity="0">
	<circle cx="0" cy="0" r="1"/>
	<circle cx="70" cy="50" r="1" fill="cornflowerblue"/>
	<circle cx="80" cy="45" r="1"/>
	<circle cx="75" cy="60" r="1"/>
	<circle cx="68" cy="46" r="1"/>
	<circle cx="50" cy="35" r="1"/>
	<circle cx="25" cy="65" r="1"/>
	<circle cx="25" cy="80" r="1"/>
	<circle cx="40" cy="80" r="1"/>
	</g>
	<g id="IVsector2" opacity="0">
	<circle cx="10" cy="70" r="1"/>
	<circle cx="15" cy="55" r="1"/>
	<circle cx="8" cy="45" r="1"/>
	<circle cx="20" cy="50" r="1"/>
	<circle cx="30" cy="40" r="1"/>
	<circle cx="27" cy="25" r="1"/>
	<circle cx="25" cy="30" r="1"/>
	<circle cx="34" cy="22" r="1"/>
	<circle cx="35" cy="28" r="1"/>
	<circle cx="10" cy="30" r="1" fill="purple"/>
	<circle cx="80" cy="60" r="1" fill="red"/>
	<circle cx="10" cy="60" r="1" fill="yellow"/>
	<circle cx="50" cy="30" r="1"/>
	</g>
	<g id="IVsector3" opacity="0">
	<circle cx="100" cy="60" r="1"/>
	<circle cx="120" cy="70" r="1"/>
	<circle cx="80" cy="67" r="1"/>
	<circle cx="75" cy="100" r="1" fill="darkred"/>
	<circle cx="85" cy="120" r="1" fill="maroon"/>
	<circle cx="75" cy="120" r="1" fill="grey"/>
	<circle cx="100" cy="50" r="1"/>
	<circle cx="60" cy="50" r="1" fill="pink"/>
	</g>
	<g id="Vsector1" opacity="1">
	<circle cx="0" cy="0" r="1" id="staging"/>
	<circle cx="70" cy="50" r="1" fill="cornflowerblue" id="Sol"/>
	<circle cx="80" cy="45" r="1" fill="cornflowerblue"/>
	<circle cx="75" cy="60" r="1" fill="cornflowerblue"/>
	<circle cx="68" cy="46" r="1" fill="cornflowerblue"/>
	<circle cx="50" cy="35" r="1" fill="cornflowerblue"/>
	<circle cx="25" cy="65" r="1" fill="cornflowerblue"/>
	<circle cx="25" cy="80" r="1" fill="cornflowerblue"/>
	<circle cx="47" cy="75" r="1" id="Outpost 45"/>
	</g>
	<g id="Vsector2" opacity="1">
	<circle cx="60" cy="100" r="1" fill="cornflowerblue" id="Feliciana"/>
	<circle cx="67" cy="93" r="1" fill="skyblue"/>
	<circle cx="61" cy="115" r="1" id="Outpost 73"/>
	<circle cx="77" cy="90" r="1" fill="skyblue"/>
	<circle cx="76" cy="98" r="1" fill="skyblue"/>
	<circle cx="70" cy="105" r="1" fill="skyblue"/>
	<circle cx="84" cy="100" r="1" fill="skyblue"/>
	<circle cx="94" cy="99" r="1" fill="skyblue"/>
	<circle cx="90" cy="85" r="1" fill="skyblue"/>
	<circle cx="100" cy="90" r="1" fill="skyblue"/>
	<circle cx="105" cy="104" r="1"/>
	<circle cx="114" cy="97" r="1" fill="purple"/>
	<circle cx="120" cy="85" r="1" fill="purple" id="Tortuga"/>
	<circle cx="120" cy="105" r="1"/>
	<circle cx="121" cy="116" r="1"/>
	<circle cx="111" cy="123" r="1"/>
	<circle cx="102" cy="124" r="1"/>
	<circle cx="103" cy="115" r="1"/>
	<circle cx="95" cy="118" r="1"/>
	<circle cx="88" cy="112" r="1"/>
	<circle cx="79" cy="111" r="1" fill="purple"/>
	<circle cx="79" cy="123" r="1" fill="purple"/>
	<circle cx="86" cy="122" r="1" fill="purple"/>
	<circle cx="70" cy="117" r="1"/>
	<circle cx="56" cy="123" r="1"/> <!--The funny zone connection-->
	<circle cx="118" cy="126" r="1"/>
	<circle cx="106" cy="131" r="1" fill="maroon"/>
	<circle cx="115" cy="137" r="1" fill="maroon"/>
	<circle cx="107" cy="141" r="1" fill="maroon"/>
	<circle cx="96" cy="143" r="1" fill="maroon"/>
	<circle cx="95" cy="135" r="1" fill="maroon"/>
	<circle cx="86" cy="136" r="1" fill="maroon"/>
	<circle cx="82" cy="130" r="1" fill="maroon"/>
	<circle cx="90" cy="129" r="1"/>
	<circle cx="78" cy="140" r="1" fill="maroon"/>
	<circle cx="74" cy="134" r="1"/>
	</g> <!--Starmap V will just use the fourth's sector 3 for now-->
	</g>
	</g>
</svg>
